<svg version="1.1" id="background-layer" 
	xmlns="http://www.w3.org/2000/svg" 
	xmlns:xlink="http://www.w3.org/1999/xlink" x="0px" y="0px" width="500px" height="300px" viewBox="0 0 500 300" enable-background="new 0 0 500 300" xml:space="preserve">
	<polygon fill="#80C93E" points="181.79,237.297 157.128,221.42 157.128,221.42 172.856,260.262 172.886,260.272 	"/>
	<polygon fill="#51B13E" points="148.479,251.671 172.856,260.262 157.128,221.42 	"/>
	<polygon fill="#1D8F44" points="387.17,262.957 385.918,234.607 385.918,234.607 362.488,269.742 362.497,269.771 	"/>
	<polygon fill="#51B13E" points="355.259,245.938 362.488,269.742 385.918,234.607 	"/>
	<polygon fill="#1D8F44" points="328.22,234.62 319.566,207.472 319.566,207.472 306.105,247.08 306.122,247.106 	"/>
	<polygon fill="#80C93E" points="292.857,225.759 306.105,247.08 319.566,207.472 	"/>
	<polygon fill="#51B13E" points="129.207,253.041 101.15,257.963 101.15,257.963 140.487,275.832 140.514,275.82 	"/>
	<polygon fill="#1D7A44" points="118.057,285.894 140.487,275.832 101.15,257.963 	"/>
	<polygon fill="#80C93E" points="167.823,177.473 139.498,158.351 139.498,158.351 157.562,205.133 157.596,205.146 	"/>
	<polygon fill="#51B13E" points="129.563,194.785 157.562,205.133 139.498,158.351 	"/>
	<polygon fill="#1D8F44" points="385.994,223.306 380.552,189.566 380.552,189.566 358.804,234.752 358.816,234.786 	"/>
	<polygon fill="#80C93E" points="347.188,207.256 358.804,234.752 380.552,189.566 	"/>
	<polygon fill="#1D7A44" points="418.618,292.646 429.897,260.385 429.897,260.385 389.257,289.767 389.253,289.802 	"/>
	<polygon fill="#51B13E" points="392.134,260.057 389.257,289.767 429.897,260.385 	"/>
	<polygon fill="#51B13E" points="72.513,257.215 38.723,262.337 38.723,262.337 83.702,284.513 83.735,284.5 	"/>
	<polygon fill="#1D7A44" points="56.097,295.868 83.702,284.513 38.723,262.337 	"/>
	<polygon fill="#51B13E" points="101.954,152.6 64.75,134.058 64.75,134.058 93.991,187.588 94.033,187.598 	"/>
	<polygon fill="#1D8F44" points="58.58,179.575 93.991,187.588 64.75,134.058 	"/>
	<polygon fill="#51B13E" points="195.424,275.48 173.603,275.502 173.603,275.502 198.412,292.885 198.435,292.881 	"/>
	<polygon fill="#1D7A44" points="179.535,297.21 198.412,292.885 173.603,275.502 	"/>
	<polygon fill="#1D7A44" points="286.027,276.147 276.108,257.082 276.108,257.082 271.031,289.405 271.046,289.422 	"/>
	<polygon fill="#51B13E" points="258.405,275.547 271.031,289.405 276.108,257.082 	"/>
	<polygon fill="#1D7A44" points="328.272,293.384 332.222,271.448 332.222,271.448 307.122,295.658 307.124,295.681 	"/>
	<polygon fill="#51B13E" points="305.441,276.504 307.122,295.658 332.222,271.448 	"/>
	<polygon fill="#1D8F44" points="447.534,188.624 446.721,147.063 446.721,147.063 412.838,197.784 412.851,197.827 	"/>
	<polygon fill="#51B13E" points="403.527,162.692 412.838,197.784 446.721,147.063 	"/>
	<polygon fill="#51B13E" points="387.604,151.59 371.948,113.082 371.948,113.082 358.496,172.578 358.522,172.612 	"/>
	<polygon fill="#80C93E" points="337.226,143.155 358.496,172.578 371.948,113.082 	"/>
	<polygon fill="#80C93E" points="222.169,133.428 189.814,107.33 189.814,107.33 206.879,165.892 206.919,165.909 	"/>
	<polygon fill="#51B13E" points="174.015,150.462 206.879,165.892 189.814,107.33 	"/>
	<polygon fill="#51B13E" points="279.401,215.53 261.08,193.171 261.08,193.171 263.472,234.745 263.497,234.764 	"/>
	<polygon fill="#80C93E" points="243.064,219.399 263.472,234.745 261.08,193.171 	"/>
	<polygon fill="#51B13E" points="47.497,201.976 5.932,201.378 5.932,201.378 55.475,236.961 55.517,236.951 	"/>
	<polygon fill="#1D8F44" points="20.087,245.077 55.475,236.961 5.932,201.378 	"/>
	<polygon fill="#51B13E" points="122.579,206.485 89.089,199.676 89.089,199.676 123.699,235.967 123.735,235.966 	"/>
	<polygon fill="#1D8F44" points="93.873,237.137 123.699,235.967 89.089,199.676 	"/>
	<polygon fill="#80C93E" points="228.012,216.305 203.351,200.428 203.351,200.428 219.078,239.27 219.107,239.28 	"/>
	<polygon fill="#51B13E" points="194.701,230.679 219.078,239.27 203.351,200.428 	"/>
	<polygon fill="#1D7A44" points="469.794,290.396 486.001,260.307 486.001,260.307 441.25,282.94 441.241,282.975 	"/>
	<polygon fill="#51B13E" points="448.758,254.051 441.25,282.94 486.001,260.307 	"/>
	<polygon fill="#1D8F44" points="476.37,248.511 491.837,209.928 491.837,209.928 440.852,243.406 440.844,243.451 	"/>
	<polygon fill="#51B13E" points="445.971,207.464 440.852,243.406 491.837,209.928 	"/>
	<polygon fill="#51B13E" points="317.937,174.519 302.914,143.822 302.914,143.822 295.252,193.382 295.275,193.409 	"/>
	<polygon fill="#80C93E" points="276.139,170.453 295.252,193.382 302.914,143.822 	"/>
	<polygon fill="#51B13E" points="238.008,270.398 221.552,257.86 221.552,257.86 232.047,288.535 232.066,288.544 	"/>
	<polygon fill="#1D7A44" points="215.78,281.75 232.047,288.535 221.552,257.86 	"/>
	<linearGradient id="SVGID_1_" gradientUnits="userSpaceOnUse" x1="250.0005" y1="300" x2="250.0005" y2="4.882812e-04">
		<stop offset="0" style="stop-color:#FFFFFF;stop-opacity:0.9"/>
		<stop offset="0.1" style="stop-color:#FFFFFF;stop-opacity:0.95"/>
		<stop offset="1" style="stop-color:#FFFFFF;stop-opacity:1"/>
	</linearGradient>
	<rect fill="url(#SVGID_1_)" width="500" height="300"/>
</svg>