<svg enable-background="new 0 0 1200 600" height="600" viewBox="0 0 1200 600" width="1200" xmlns="http://www.w3.org/2000/svg"><g fill="#2b5d4f"><path d="m469.015 424.978v-24.572h-4.55v-6.78h4.55v-2.492c0-3.574 1.053-6.347 3.159-8.317 2.105-1.97 5.062-2.955 8.867-2.955 1.391 0 2.917.203 4.578.608l.028 7.185c-.598-.174-1.401-.261-2.404-.261-2.957 0-4.434 1.275-4.434 3.826v2.404h6.113v6.78h-6.113v24.571h-9.794z"/><path d="m485.343 409.012c0-3.13.607-5.916 1.826-8.361 1.218-2.443 2.965-4.322 5.245-5.635 2.28-1.312 4.955-1.97 8.026-1.97 4.694 0 8.394 1.453 11.099 4.359 2.705 2.908 4.056 6.863 4.056 11.867v.347c0 4.887-1.358 8.766-4.071 11.634s-6.389 4.303-11.025 4.303c-4.461 0-8.045-1.338-10.749-4.014-2.705-2.675-4.163-6.302-4.375-10.88zm9.766.607c0 2.898.453 5.022 1.362 6.374.908 1.353 2.25 2.029 4.028 2.029 3.477 0 5.254-2.675 5.332-8.026v-.984c0-5.623-1.797-8.433-5.39-8.433-3.265 0-5.032 2.425-5.303 7.274z"/><path d="m536.792 421.587c-2.068 2.647-4.859 3.97-8.374 3.97-3.438 0-6.043-1.001-7.808-2.999-1.767-1.999-2.652-4.873-2.652-8.621v-20.312h9.764v20.369c0 2.685 1.305 4.028 3.912 4.028 2.241 0 3.836-.801 4.781-2.404v-21.993h9.823v31.353h-9.156z"/><path d="m558.773 393.625.319 3.679c2.164-2.837 5.148-4.258 8.954-4.258 3.266 0 5.704.976 7.317 2.925 1.613 1.951 2.448 4.888 2.506 8.809v20.198h-9.794v-19.792c0-1.583-.318-2.748-.956-3.49-.636-.743-1.796-1.116-3.476-1.116-1.912 0-3.332.754-4.259 2.261v22.138h-9.764v-31.353h9.153z"/><path d="m580.261 409.069c0-4.966 1.072-8.878 3.218-11.735 2.144-2.857 5.139-4.287 8.982-4.287 2.803 0 5.158 1.101 7.07 3.302v-15.879h9.794v44.508h-8.779l-.493-3.363c-2.008 2.628-4.559 3.942-7.649 3.942-3.729 0-6.684-1.429-8.866-4.288-2.184-2.861-3.277-6.927-3.277-12.2zm9.765.609c0 5.563 1.621 8.345 4.868 8.345 2.163 0 3.708-.907 4.636-2.724v-11.938c-.889-1.854-2.413-2.782-4.577-2.782-3.015 0-4.646 2.436-4.898 7.302z"/><path d="m630.751 424.978c-.348-.639-.657-1.575-.928-2.812-1.797 2.261-4.308 3.391-7.533 3.391-2.956 0-5.467-.895-7.534-2.681-2.067-1.785-3.101-4.033-3.101-6.736 0-3.4 1.256-5.968 3.767-7.707 2.512-1.738 6.163-2.607 10.953-2.607h3.014v-1.659c0-2.893-1.246-4.339-3.738-4.339-2.317 0-3.477 1.147-3.477 3.435h-9.765c0-3.026 1.289-5.487 3.87-7.379 2.579-1.892 5.865-2.836 9.864-2.836s7.157.976 9.475 2.927 3.507 4.626 3.564 8.026v13.879c.039 2.879.485 5.081 1.333 6.606v.493zm-6.114-6.376c1.217 0 2.227-.261 3.028-.782.802-.522 1.376-1.111 1.724-1.768v-5.015h-2.84c-3.399 0-5.1 1.526-5.1 4.578 0 .89.3 1.609.898 2.159.602.549 1.362.828 2.29.828z"/><path d="m654.18 385.831v7.794h5.158v6.78h-5.158v14.344c0 1.178.213 1.999.641 2.463.425.463 1.263.694 2.521.694.964 0 1.777-.059 2.434-.175v6.983c-1.758.561-3.593.841-5.505.841-3.361 0-5.844-.792-7.447-2.376s-2.404-3.989-2.404-7.215v-15.56h-3.999v-6.78h3.999v-7.794h9.76z"/><path d="m661.325 385.541c0-1.391.502-2.53 1.507-3.419 1.007-.891 2.309-1.333 3.911-1.333 1.604 0 2.91.442 3.912 1.333 1.005.889 1.507 2.028 1.507 3.419s-.5 2.531-1.507 3.42c-1.005.889-2.309 1.333-3.912 1.333s-2.907-.444-3.911-1.333c-1.002-.889-1.507-2.029-1.507-3.42zm10.373 39.437h-9.794v-31.353h9.794z"/><path d="m674.697 409.012c0-3.13.608-5.916 1.825-8.361 1.22-2.443 2.966-4.322 5.245-5.635 2.279-1.312 4.955-1.97 8.026-1.97 4.694 0 8.394 1.453 11.098 4.359 2.707 2.908 4.057 6.863 4.057 11.867v.347c0 4.887-1.356 8.766-4.071 11.634-2.714 2.868-6.389 4.303-11.025 4.303-4.462 0-8.045-1.338-10.75-4.014-2.702-2.675-4.163-6.302-4.375-10.88zm9.765.607c0 2.898.454 5.022 1.364 6.374.908 1.353 2.248 2.029 4.028 2.029 3.475 0 5.254-2.675 5.329-8.026v-.984c0-5.623-1.797-8.433-5.388-8.433-3.267 0-5.031 2.425-5.302 7.274z"/><path d="m716.439 393.625.319 3.679c2.163-2.837 5.147-4.258 8.953-4.258 3.265 0 5.703.976 7.316 2.925 1.613 1.951 2.448 4.888 2.507 8.809v20.198h-9.794v-19.792c0-1.583-.319-2.748-.956-3.49-.636-.743-1.797-1.116-3.478-1.116-1.912 0-3.33.754-4.257 2.261v22.138h-9.765v-31.353h9.155z"/></g><path d="m572.033 300.916c-4.095 0-7.418-3.322-7.418-7.418v-111.634c0-4.096 3.323-7.418 7.418-7.418 4.097 0 7.418 3.322 7.418 7.418v111.634c0 4.097-3.321 7.418-7.418 7.418" fill="#cedc28"/><path d="m572.038 300.916c-2.774 0-5.436-1.564-6.707-4.238-1.756-3.701-.179-8.124 3.523-9.883l44.729-21.227-45.95-33.854c-3.297-2.43-4.002-7.073-1.572-10.371 2.43-3.299 7.076-4.004 10.372-1.573l55.934 41.209c2.1 1.549 3.233 4.084 2.983 6.684-.249 2.597-1.845 4.871-4.203 5.989l-55.935 26.547c-1.024.488-2.108.717-3.174.717" fill="#54b242"/><path d="m572.039 257.037c-2.277 0-4.522-1.046-5.977-3.018-2.431-3.298-1.726-7.942 1.573-10.374l45.949-33.852-44.729-21.228c-3.702-1.758-5.279-6.182-3.523-9.883 1.758-3.702 6.183-5.278 9.881-3.521l55.935 26.546c2.358 1.119 3.954 3.395 4.203 5.993.25 2.598-.884 5.133-2.983 6.681l-55.934 41.209c-1.326.976-2.868 1.447-4.395 1.447" fill="#cedc28"/><path d="m579.451 221.995v31.372l21.281-15.679z" fill="#265a44"/><path d="m564.615 208.842h14.836v36.162h-14.836z"/><path d="m579.451 181.864c0-4.096-3.321-7.418-7.418-7.418-4.095 0-7.418 3.322-7.418 7.418v93.355h14.836z" fill="#cedc28"/><path d="m520.862 346.4c4.753 1.35 7.386 5.652 7.386 11.05 0 8.415-5.14 12.334-12.141 12.334h-15.995v-44.966h14.131c6.873 0 12.205 3.274 12.205 11.819.001 4.303-1.798 8.288-5.586 9.763m-6.554-1.091c5.076 0 9.187-1.799 9.187-8.736 0-7-4.24-8.864-9.379-8.864h-10.984v17.601h11.176zm1.607 21.519c5.137 0 9.249-2.699 9.249-9.378 0-7.196-4.689-9.379-10.533-9.379h-11.499v18.757z" fill="#2b5d4f"/><path d="m558.312 324.818v2.762h-12.397v42.201h-3.02v-42.201h-12.396v-2.762z" fill="#2b5d4f"/><path d="m579.443 324.176c7.645 0 14.581 3.854 16.767 13.039h-2.891c-2.055-7.515-8.094-10.274-13.938-10.274-10.598 0-16.187 8.671-16.187 20.363 0 12.334 5.589 20.232 16.251 20.232 6.295 0 11.947-2.825 14.133-11.112h2.891c-1.929 9.571-9.507 14.003-17.023 14.003-12.012 0-19.204-8.864-19.204-23.123-.003-13.687 7.576-23.128 19.201-23.128" fill="#2b5d4f"/><path d="m619.078 324.818c7.771 0 13.423 5.075 13.423 14.903 0 9.25-5.652 14.838-13.423 14.838h-11.822v15.225h-2.953v-44.966zm0 26.786c5.716 0 10.404-3.66 10.404-11.947 0-8.285-4.498-12.011-10.404-12.011h-11.822v23.958z" fill="#2b5d4f"/><path d="m633.016 369.784v-.387l17.922-44.707h1.35l17.729 44.707v.387h-3.148l-5.073-12.977h-20.491l-5.073 12.977zm18.566-39.763-9.251 23.959h18.437z" fill="#2b5d4f"/><path d="m696.678 324.818h3.209v.45l-14.002 25.822v18.691h-3.084v-18.691l-14.068-25.886v-.386h3.277l6.101 11.434 6.168 11.882h.063l6.229-11.882z" fill="#2b5d4f"/></svg>