<?xml version="1.0" encoding="utf-8"?>
<!-- Generator: Adobe Illustrator 16.0.0, SVG Export Plug-In . SVG Version: 6.00 Build 0)  -->
<!DOCTYPE svg PUBLIC "-//W3C//DTD SVG 1.1//EN" "http://www.w3.org/Graphics/SVG/1.1/DTD/svg11.dtd">
<svg version="1.1" id="Layer_1" xmlns="http://www.w3.org/2000/svg" xmlns:xlink="http://www.w3.org/1999/xlink" x="0px" y="0px"
	 width="500px" height="500px" viewBox="0 0 500 500" enable-background="new 0 0 500 500" xml:space="preserve">
<g>
	<g transform="matrix( 1, 0, 0, 1, 0,0) ">
		<g>
			<g id="Layer0_0_FILL">
				<path d="M96.01,30.866c0-1.532-0.57-2.819-1.71-3.86c-1.151-1.054-2.494-1.514-4.025-1.378
					c-9.645,0.833-18.645,3.688-27.003,8.565c-8.101,4.767-14.864,11.017-20.293,18.75c-0.883,1.323-1.146,2.745-0.791,4.264
					c0.331,1.495,1.152,2.617,2.463,3.365l15.9,9.154v13.05c0,0.711,0.251,1.317,0.754,1.82c0.502,0.503,1.103,0.754,1.802,0.754
					c0.71,0,1.317-0.251,1.819-0.754c0.479-0.503,0.718-1.109,0.718-1.82v-1.507c0-0.711,0.257-1.318,0.771-1.82
					c0.502-0.503,1.103-0.754,1.801-0.754c0.711,0,1.317,0.251,1.82,0.754c0.502,0.502,0.754,1.109,0.754,1.82v9.908
					c0,0.711,0.251,1.317,0.753,1.82c0.515,0.502,1.121,0.753,1.82,0.753c0.698,0,1.306-0.251,1.819-0.753
					c0.503-0.502,0.754-1.109,0.754-1.82v-6.544c0-0.711,0.239-1.317,0.717-1.82c0.515-0.502,1.122-0.754,1.82-0.754
					s1.305,0.252,1.819,0.754c0.502,0.503,0.753,1.109,0.753,1.82v1.912c0,0.699,0.252,1.299,0.754,1.801
					c0.503,0.503,1.109,0.754,1.82,0.754c0.698,0,1.299-0.251,1.802-0.754c0.502-0.502,0.753-1.103,0.753-1.801v-1.985l4.927,2.831
					c1.091,0.638,2.175,0.638,3.253,0c1.104-0.637,1.655-1.592,1.655-2.868V30.866 M74.98,48.494c0.748-1.287,1.845-2.12,3.291-2.5
					c1.458-0.393,2.83-0.214,4.117,0.533c1.299,0.748,2.139,1.857,2.518,3.328c0.393,1.446,0.203,2.818-0.569,4.117
					c-0.747,1.299-1.844,2.132-3.291,2.5c-1.457,0.379-2.83,0.196-4.116-0.553c-1.3-0.771-2.139-1.868-2.519-3.29
					C74.043,51.171,74.233,49.792,74.98,48.494 M80.881,72.004c-0.38-1.459-0.196-2.831,0.552-4.118
					c0.747-1.299,1.851-2.138,3.309-2.519c1.446-0.393,2.818-0.214,4.117,0.534c1.3,0.748,2.133,1.856,2.5,3.327
					c0.393,1.458,0.208,2.831-0.552,4.118c-0.747,1.298-1.85,2.138-3.308,2.518c-1.447,0.368-2.819,0.178-4.118-0.569
					C82.082,74.522,81.249,73.426,80.881,72.004 M59.559,49.725c1.446-0.379,2.807-0.196,4.081,0.552
					c1.298,0.772,2.144,1.881,2.536,3.328c0.393,1.457,0.208,2.824-0.552,4.098c-0.771,1.287-1.875,2.132-3.309,2.537
					c-1.445,0.367-2.818,0.178-4.117-0.569c-1.299-0.749-2.145-1.845-2.537-3.291c-0.367-1.446-0.178-2.818,0.57-4.117
					C56.991,50.963,58.101,50.118,59.559,49.725z"/>
			</g>
		</g>
	</g>
	<g transform="matrix( 1, 0, 0, 1, 0,0) ">
		<g>
			<g id="Layer0_0_FILL_1_">
				<path fill-opacity="0.9961" d="M147.996,46.819c-0.502-0.502-1.108-0.753-1.819-0.753s-1.317,0.251-1.82,0.753
					c-0.502,0.503-0.753,1.11-0.753,1.821c0,0.71,0.251,1.317,0.753,1.819c0.503,0.502,1.109,0.753,1.82,0.753
					s1.317-0.251,1.819-0.753c0.503-0.502,0.754-1.109,0.754-1.819C148.75,47.929,148.499,47.322,147.996,46.819z"/>
			</g>
		</g>
		<g>
			
				<path id="Layer0_0_1_STROKES" fill="none" stroke="#000000" stroke-width="5.5145" stroke-linecap="square" stroke-miterlimit="3" d="
				M134.045,72.168V46.802c0-2.635,0.49-5.073,1.471-7.316c0.784-2.279,2.102-4.344,3.952-6.194
				c3.247-3.248,7.168-4.871,11.764-4.871c0.196,0,0.393,0.005,0.588,0.018c0.196-0.012,0.398-0.018,0.607-0.018h20.22
				c5.073,0,9.404,1.794,12.995,5.385c3.591,3.591,5.387,7.923,5.387,12.997v25.367 M151.819,28.438
				c4.339,0.123,8.058,1.74,11.158,4.853c3.26,3.247,4.89,7.168,4.89,11.764c0,4.595-1.63,8.51-4.89,11.746
				c-3.235,3.26-7.15,4.89-11.746,4.89c-0.036,0-0.135,0-0.294,0 M135.516,39.485c0.882-2.059,2.187-3.952,3.915-5.68
				c3.443-3.443,7.573-5.232,12.389-5.367 M175.568,72.168h-24.631"/>
		</g>
	</g>
	<g transform="matrix( 1, 0, 0, 1, 0,0) ">
		<g>
			<g id="Layer0_0_FILL_2_">
				<path d="M367.985,406.64l-9.028,21.152l9.028,21.136l9.03-21.151L367.985,406.64 M399.188,472.507l9.029-21.15l-9.029-21.135
					l-9.029,21.15L399.188,472.507 M439.273,427.776l-9.029-21.137l-9.029,21.152l9.029,21.136L439.273,427.776z"/>
			</g>
		</g>
		<g>
			
				<path id="Layer0_0_1_STROKES_1_" fill="none" stroke="#000000" stroke-width="2.8757" stroke-linecap="round" stroke-linejoin="round" d="
				M447.498,406.64l9.029,21.137l-9.029,21.151 M441.746,406.64l9.029,21.137l-9.029,21.151 M421.215,427.792l9.029-21.152
				l9.029,21.137l-9.029,21.151L421.215,427.792z M435.995,406.64l9.03,21.137l-9.03,21.151 M385.24,406.64l9.029,21.137
				l-9.029,21.151 M379.488,406.64l9.031,21.137l-9.031,21.151 M358.957,427.792l9.028-21.152l9.03,21.137l-9.03,21.151
				L358.957,427.792z M390.158,451.372l9.029-21.15l9.029,21.135l-9.029,21.15L390.158,451.372z M404.938,430.222l9.029,21.135
				l-9.029,21.15 M410.689,430.222l9.029,21.135l-9.029,21.15 M373.737,406.64l9.03,21.137l-9.03,21.151 M416.441,430.222
				l9.029,21.135l-9.029,21.15"/>
		</g>
	</g>
	<g transform="matrix( 1, 0, 0, 1, 0,0) ">
		<g>
			<g id="Layer0_0_FILL_3_">
				<path d="M304.563,434.85c1.907-1.917,2.852-4.223,2.832-6.916c0.01-2.693-0.939-4.993-2.847-6.901
					c-1.917-1.926-4.218-2.89-6.902-2.89v9.806l-6.916-6.916c-1.916,1.908-2.879,4.213-2.89,6.916
					c0.011,2.684,0.974,4.988,2.89,6.916c1.908,1.907,4.205,2.861,6.889,2.861C300.331,437.716,302.645,436.757,304.563,434.85
					 M324.506,426.64c0-0.134,0-0.264,0-0.389c-0.086-7.361-2.741-13.654-7.967-18.878c-3.058-3.058-6.483-5.249-10.279-6.571
					c-0.02,0-0.053,0-0.101,0c-2.732-0.939-5.65-1.418-8.756-1.438c-0.049,0-0.105,0-0.174,0c-3.2,0-6.202,0.479-8.999,1.438
					c-0.049,0.029-0.098,0.053-0.145,0.072c-3.738,1.294-7.127,3.46-10.166,6.499c-5.225,5.224-7.884,11.517-7.979,18.878
					c0,0.125,0,0.255,0,0.389c0,1.083,0.062,2.156,0.187,3.221c0.086,0.911,0.226,1.826,0.417,2.746
					c0.633,2.991,1.751,5.771,3.351,8.34c0.259,0.422,0.531,0.83,0.819,1.222l19.828,30.181c0.028,0.047,0.067,0.096,0.114,0.145
					c0.115,0.162,0.244,0.314,0.388,0.459c0.651,0.662,1.429,0.992,2.33,0.992h0.029c0.89-0.029,1.658-0.359,2.3-0.992
					c0.163-0.162,0.316-0.35,0.461-0.561c0.047-0.049,0.081-0.105,0.1-0.172l14.292-22.029l-8.986-8.984
					c-2.377,1.484-5.065,2.232-8.065,2.242c-4.237,0-7.855-1.5-10.856-4.5c-2.999-3.01-4.505-6.639-4.515-10.885
					c0-4.256,1.5-7.884,4.5-10.885c3.001-3,6.629-4.5,10.885-4.5s7.885,1.504,10.885,4.515c3,2.999,4.495,6.624,4.486,10.87
					c0.009,2.885-0.681,5.482-2.072,7.793l7.91,7.908l1.092-1.696c0.26-0.374,0.518-0.763,0.776-1.165
					c1.649-2.637,2.765-5.492,3.351-8.57c0.162-0.738,0.292-1.471,0.388-2.199c0-0.087,0.015-0.178,0.042-0.273
					C324.463,428.825,324.506,427.751,324.506,426.64z"/>
			</g>
		</g>
	</g>
	<g>
		<g transform="matrix( 2.935302734375, 0, 0, 2.935302734375, -272.8,-184.5) ">
			<g>
				<g id="Layer0_0_MEMBER_0_FILL">
					<path d="M169.278,171.104c0-0.135-0.049-0.251-0.147-0.349l-11.489-11.47c-0.086-0.098-0.196-0.147-0.331-0.147
						c-0.135,0-0.251,0.049-0.349,0.147c-0.098,0.098-0.147,0.215-0.147,0.349c0,0.135,0.049,0.252,0.147,0.349l11.47,11.47
						c0.098,0.098,0.215,0.147,0.35,0.147c0.134,0,0.251-0.049,0.349-0.147C169.229,171.368,169.278,171.251,169.278,171.104z"/>
				</g>
			</g>
		</g>
		<g transform="matrix( 2.935302734375, 0, 0, 2.935302734375, -272.8,-184.5) ">
			<g>
				<g id="Layer0_0_MEMBER_1_FILL">
					<path d="M170.326,170.057c0-0.147-0.043-0.263-0.128-0.349l-11.489-11.489c-0.098-0.086-0.214-0.128-0.349-0.128
						c-0.135,0-0.252,0.043-0.349,0.128c-0.098,0.098-0.147,0.215-0.147,0.349c0,0.147,0.049,0.264,0.147,0.349l11.489,11.489
						c0.098,0.098,0.214,0.147,0.349,0.147c0.134,0,0.251-0.049,0.349-0.147C170.283,170.308,170.326,170.191,170.326,170.057z"/>
				</g>
			</g>
		</g>
		<g transform="matrix( 2.935302734375, 0, 0, 2.935302734375, -272.8,-184.5) ">
			<g>
				<g id="Layer0_0_MEMBER_2_FILL">
					<path d="M171.374,169.009c0-0.135-0.049-0.251-0.147-0.349l-11.47-11.488c-0.098-0.086-0.215-0.129-0.349-0.129
						c-0.135,0-0.251,0.043-0.349,0.129c-0.098,0.098-0.147,0.215-0.147,0.349c0,0.147,0.049,0.263,0.147,0.349l11.471,11.489
						c0.098,0.098,0.214,0.147,0.349,0.147c0.147,0,0.263-0.049,0.349-0.147C171.325,169.26,171.374,169.143,171.374,169.009z"/>
				</g>
			</g>
		</g>
		<g transform="matrix( 2.935302734375, 0, 0, 2.935302734375, -272.8,-184.5) ">
			<g>
				<g id="Layer0_0_MEMBER_3_FILL">
					<path d="M172.421,167.961c0-0.134-0.049-0.251-0.146-0.349l-11.471-11.471c-0.098-0.098-0.214-0.147-0.349-0.147
						c-0.135,0-0.251,0.049-0.349,0.147c-0.098,0.098-0.147,0.215-0.147,0.349c0,0.135,0.049,0.252,0.147,0.349l11.471,11.47
						c0.098,0.098,0.214,0.147,0.349,0.147c0.147,0,0.263-0.049,0.35-0.147C172.373,168.212,172.421,168.096,172.421,167.961z"/>
				</g>
			</g>
		</g>
		<g transform="matrix( 2.935302734375, 0, 0, 2.935302734375, -272.8,-184.5) ">
			<g>
				<g id="Layer0_0_MEMBER_4_FILL">
					<path d="M160.455,155.994c-0.135,0-0.251,0.049-0.349,0.147l-11.489,11.471c-0.085,0.098-0.128,0.214-0.128,0.349
						c0,0.135,0.043,0.252,0.128,0.349c0.098,0.098,0.215,0.147,0.349,0.147c0.147,0,0.263-0.049,0.349-0.147l11.488-11.47
						c0.098-0.098,0.147-0.214,0.147-0.349c0-0.135-0.049-0.251-0.147-0.349C160.706,156.044,160.59,155.994,160.455,155.994z"/>
				</g>
			</g>
		</g>
		<g transform="matrix( 2.935302734375, 0, 0, 2.935302734375, -272.8,-184.5) ">
			<g>
				<g id="Layer0_0_MEMBER_5_FILL">
					<path d="M161.521,157.061c-0.135,0-0.251,0.043-0.349,0.129l-11.489,11.489c-0.098,0.098-0.147,0.214-0.147,0.349
						c0,0.135,0.049,0.251,0.147,0.349c0.098,0.098,0.214,0.147,0.349,0.147c0.135,0,0.251-0.049,0.349-0.147l11.47-11.488
						c0.098-0.098,0.147-0.215,0.147-0.349c0-0.135-0.049-0.251-0.147-0.349C161.766,157.104,161.656,157.061,161.521,157.061z"/>
				</g>
			</g>
		</g>
		<g transform="matrix( 2.935302734375, 0, 0, 2.935302734375, -272.8,-184.5) ">
			<g>
				<g id="Layer0_0_MEMBER_6_FILL">
					<path d="M162.55,158.09c-0.135,0-0.251,0.049-0.349,0.147l-11.47,11.488c-0.098,0.098-0.147,0.215-0.147,0.349
						c0,0.135,0.049,0.246,0.147,0.331c0.098,0.098,0.215,0.147,0.349,0.147c0.135,0,0.251-0.049,0.349-0.147l11.47-11.47
						c0.098-0.098,0.147-0.215,0.147-0.349s-0.049-0.251-0.147-0.349C162.814,158.139,162.697,158.09,162.55,158.09z"/>
				</g>
			</g>
		</g>
		<g transform="matrix( 2.935302734375, 0, 0, 2.935302734375, -272.8,-184.5) ">
			<g>
				<g id="Layer0_0_MEMBER_7_FILL">
					<path d="M163.598,159.138c-0.135,0-0.251,0.049-0.349,0.147l-11.47,11.47c-0.098,0.098-0.147,0.215-0.147,0.349
						c0,0.147,0.049,0.263,0.147,0.349c0.098,0.098,0.214,0.147,0.349,0.147c0.135,0,0.252-0.049,0.349-0.147l11.47-11.47
						c0.098-0.098,0.147-0.214,0.147-0.349c0-0.134-0.049-0.251-0.147-0.349C163.849,159.187,163.733,159.138,163.598,159.138z"/>
				</g>
			</g>
		</g>
		<g transform="matrix( 2.935302734375, 0, 0, 2.935302734375, -272.8,-184.5) ">
			<g>
				<g id="Layer0_0_MEMBER_8_FILL">
					<path d="M168.782,164.322c-0.135,0-0.252,0.049-0.35,0.147l-11.47,11.47c-0.098,0.098-0.147,0.214-0.147,0.349
						c0,0.135,0.049,0.251,0.147,0.349c0.098,0.098,0.215,0.147,0.349,0.147c0.135,0,0.245-0.049,0.331-0.147l11.489-11.47
						c0.098-0.098,0.147-0.215,0.147-0.349s-0.049-0.251-0.147-0.349C169.033,164.371,168.917,164.322,168.782,164.322z"/>
				</g>
			</g>
		</g>
		<g transform="matrix( 2.935302734375, 0, 0, 2.935302734375, -272.8,-184.5) ">
			<g>
				<g id="Layer0_0_MEMBER_9_FILL">
					<path d="M169.848,165.388c-0.135,0-0.251,0.043-0.349,0.129l-11.489,11.488c-0.098,0.098-0.147,0.215-0.147,0.349
						c0,0.135,0.049,0.252,0.147,0.349c0.098,0.098,0.214,0.147,0.349,0.147c0.135,0,0.251-0.049,0.349-0.147l11.489-11.489
						c0.098-0.086,0.147-0.202,0.147-0.349c0-0.134-0.049-0.251-0.147-0.349C170.099,165.431,169.983,165.388,169.848,165.388z"/>
				</g>
			</g>
		</g>
		<g transform="matrix( 2.935302734375, 0, 0, 2.935302734375, -272.8,-184.5) ">
			<g>
				<g id="Layer0_0_MEMBER_10_FILL">
					<path d="M170.878,166.436c-0.135,0-0.251,0.043-0.349,0.128l-11.471,11.489c-0.098,0.098-0.147,0.214-0.147,0.349
						c0,0.134,0.049,0.251,0.147,0.349c0.098,0.086,0.214,0.128,0.349,0.128c0.135,0,0.251-0.043,0.349-0.128l11.47-11.489
						c0.098-0.098,0.147-0.215,0.147-0.349c0-0.135-0.049-0.252-0.147-0.349C171.141,166.478,171.024,166.436,170.878,166.436z"/>
				</g>
			</g>
		</g>
		<g transform="matrix( 2.935302734375, 0, 0, 2.935302734375, -272.8,-184.5) ">
			<g>
				<g id="Layer0_0_MEMBER_11_FILL">
					<path d="M171.925,167.465c-0.134,0-0.251,0.049-0.349,0.147L160.106,179.1c-0.098,0.098-0.147,0.214-0.147,0.349
						c0,0.134,0.049,0.245,0.147,0.331c0.098,0.098,0.215,0.147,0.349,0.147c0.135,0,0.251-0.049,0.349-0.147l11.471-11.47
						c0.098-0.098,0.146-0.214,0.146-0.349c0-0.134-0.049-0.251-0.146-0.349C172.176,167.514,172.06,167.465,171.925,167.465z"/>
				</g>
			</g>
		</g>
		<g transform="matrix( 2.935302734375, 0, 0, 2.935302734375, -272.8,-184.5) ">
			<g>
				<g id="Layer0_0_MEMBER_12_FILL">
					<path d="M152.128,164.322c-0.135,0-0.251,0.049-0.349,0.147c-0.098,0.098-0.147,0.214-0.147,0.349s0.049,0.251,0.147,0.349
						l11.47,11.47c0.098,0.098,0.215,0.147,0.349,0.147c0.135,0,0.251-0.049,0.349-0.147c0.098-0.098,0.147-0.215,0.147-0.349
						c0-0.135-0.049-0.252-0.147-0.349l-11.47-11.47C152.379,164.371,152.263,164.322,152.128,164.322z"/>
				</g>
			</g>
		</g>
		<g transform="matrix( 2.935302734375, 0, 0, 2.935302734375, -272.8,-184.5) ">
			<g>
				<g id="Layer0_0_MEMBER_13_FILL">
					<path d="M163.028,177.354c0-0.135-0.049-0.252-0.147-0.349l-11.47-11.488c-0.098-0.086-0.215-0.129-0.349-0.129
						c-0.135,0-0.251,0.043-0.349,0.129c-0.098,0.098-0.147,0.215-0.147,0.349c0,0.147,0.049,0.263,0.147,0.349l11.489,11.489
						c0.098,0.098,0.214,0.147,0.349,0.147c0.135,0,0.245-0.049,0.331-0.147C162.979,177.606,163.028,177.489,163.028,177.354z"/>
				</g>
			</g>
		</g>
		<g transform="matrix( 2.935302734375, 0, 0, 2.935302734375, -272.8,-184.5) ">
			<g>
				<g id="Layer0_0_MEMBER_14_FILL">
					<path d="M161.999,178.402c0-0.135-0.049-0.252-0.147-0.349l-11.489-11.489c-0.098-0.086-0.214-0.128-0.349-0.128
						s-0.252,0.043-0.349,0.128c-0.086,0.098-0.129,0.214-0.129,0.349c0,0.134,0.043,0.251,0.129,0.349l11.488,11.489
						c0.098,0.098,0.215,0.147,0.349,0.147s0.251-0.049,0.349-0.147C161.95,178.653,161.999,178.536,161.999,178.402z"/>
				</g>
			</g>
		</g>
		<g transform="matrix( 2.935302734375, 0, 0, 2.935302734375, -272.8,-184.5) ">
			<g>
				<g id="Layer0_0_MEMBER_15_FILL">
					<path d="M160.951,179.45c0-0.135-0.049-0.251-0.147-0.349l-11.488-11.488c-0.086-0.098-0.202-0.147-0.349-0.147
						c-0.135,0-0.251,0.049-0.349,0.147c-0.085,0.098-0.128,0.214-0.128,0.349c0,0.135,0.043,0.252,0.128,0.349l11.489,11.47
						c0.098,0.098,0.215,0.147,0.349,0.147c0.135,0,0.251-0.049,0.349-0.147C160.902,179.695,160.951,179.584,160.951,179.45z"/>
				</g>
			</g>
		</g>
	</g>
	<g>
		<g transform="matrix( 1, 0, 0, 1, 128,27) ">
			<g>
				<g id="Layer0_0_MEMBER_0_FILL_1_">
					<path d="M103.204-1.366h-2.968V25.17h2.968V-1.366z"/>
				</g>
			</g>
		</g>
		<g transform="matrix( 1, 0, 0, 1, 128,27) ">
			<g>
				<g id="Layer0_0_MEMBER_1_FILL_1_">
					<path d="M109.111-1.366h-2.998V25.17h2.998V-1.366z"/>
				</g>
			</g>
		</g>
		<g transform="matrix( 1, 0, 0, 1, 128,27) ">
			<g>
				<g id="Layer0_0_MEMBER_2_FILL_1_">
					<path d="M112.021-1.366V25.17h2.997V-1.366H112.021z"/>
				</g>
			</g>
		</g>
		<g transform="matrix( 1, 0, 0, 1, 128,27) ">
			<g>
				<g id="Layer0_0_MEMBER_3_FILL_1_">
					<path d="M120.896-1.366h-2.969V25.17h2.969V-1.366z"/>
				</g>
			</g>
		</g>
		<g transform="matrix( 1, 0, 0, 1, 128,27) ">
			<g>
				<g id="Layer0_0_MEMBER_4_FILL_1_">
					<path d="M126.803-1.366h-2.998V25.17h2.998V-1.366z"/>
				</g>
			</g>
		</g>
		<g transform="matrix( 1, 0, 0, 1, 128,27) ">
			<g>
				<g id="Layer0_0_MEMBER_5_FILL_1_">
					<path d="M155.864,25.2v-2.999H129.33V25.2H155.864z"/>
				</g>
			</g>
		</g>
		<g transform="matrix( 1, 0, 0, 1, 128,27) ">
			<g>
				<g id="Layer0_0_MEMBER_6_FILL_1_">
					<path d="M155.864,19.292v-2.998H129.33v2.998H155.864z"/>
				</g>
			</g>
		</g>
		<g transform="matrix( 1, 0, 0, 1, 128,27) ">
			<g>
				<g id="Layer0_0_MEMBER_7_FILL_1_">
					<path d="M155.864,13.386v-2.968H129.33v2.968H155.864z"/>
				</g>
			</g>
		</g>
		<g transform="matrix( 1, 0, 0, 1, 128,27) ">
			<g>
				<g id="Layer0_0_MEMBER_8_FILL_1_">
					<path d="M155.864,7.508V4.511H129.33v2.998H155.864z"/>
				</g>
			</g>
		</g>
		<g transform="matrix( 1, 0, 0, 1, 128,27) ">
			<g>
				<g id="Layer0_0_MEMBER_9_FILL_1_">
					<path d="M155.864,1.602v-2.998H129.33v2.998H155.864z"/>
				</g>
			</g>
		</g>
		<g transform="matrix( 1, 0, 0, 1, 128,27) ">
			<g>
				<g id="Layer0_0_MEMBER_10_FILL_1_">
					<path d="M155.864,25.2h-2.997v26.536h2.997V25.2z"/>
				</g>
			</g>
		</g>
		<g transform="matrix( 1, 0, 0, 1, 128,27) ">
			<g>
				<g id="Layer0_0_MEMBER_11_FILL_1_">
					<path d="M149.957,25.2h-2.997v26.536h2.997V25.2z"/>
				</g>
			</g>
		</g>
		<g transform="matrix( 1, 0, 0, 1, 128,27) ">
			<g>
				<g id="Layer0_0_MEMBER_12_FILL_1_">
					<path d="M144.051,25.2h-2.966v26.536h2.966V25.2z"/>
				</g>
			</g>
		</g>
		<g transform="matrix( 1, 0, 0, 1, 128,27) ">
			<g>
				<g id="Layer0_0_MEMBER_13_FILL_1_">
					<path d="M138.174,51.736V25.2h-2.996v26.536H138.174z"/>
				</g>
			</g>
		</g>
		<g transform="matrix( 1, 0, 0, 1, 128,27) ">
			<g>
				<g id="Layer0_0_MEMBER_14_FILL_1_">
					<path d="M132.268,25.2h-2.996v26.536h2.996V25.2z"/>
				</g>
			</g>
		</g>
		<g transform="matrix( 1, 0, 0, 1, 128,27) ">
			<g>
				<g id="Layer0_0_MEMBER_15_FILL_1_">
					<path d="M126.773,51.766v-2.998h-26.537v2.998H126.773z"/>
				</g>
			</g>
		</g>
		<g transform="matrix( 1, 0, 0, 1, 128,27) ">
			<g>
				<g id="Layer0_0_MEMBER_16_FILL">
					<path d="M126.773,45.858V42.89h-26.537v2.968H126.773z"/>
				</g>
			</g>
		</g>
		<g transform="matrix( 1, 0, 0, 1, 128,27) ">
			<g>
				<g id="Layer0_0_MEMBER_17_FILL">
					<path d="M126.773,39.981v-2.998h-26.537v2.998H126.773z"/>
				</g>
			</g>
		</g>
		<g transform="matrix( 1, 0, 0, 1, 128,27) ">
			<g>
				<g id="Layer0_0_MEMBER_18_FILL">
					<path d="M100.236,31.077v2.998h26.537v-2.998H100.236z"/>
				</g>
			</g>
		</g>
		<g transform="matrix( 1, 0, 0, 1, 128,27) ">
			<g>
				<g id="Layer0_0_MEMBER_19_FILL">
					<path d="M100.236,25.2v2.967h26.537V25.2H100.236z"/>
				</g>
			</g>
		</g>
	</g>
	<g transform="matrix( 1, 0, 0, 1, 0,0) ">
		<g>
			<g id="Layer0_0_FILL_4_">
				<path d="M355.641,53.414c0.49-0.257,0.942-0.546,1.359-0.864c0.539-0.429,1.189-1.158,1.949-2.188
					c0.465-0.76,0.839-1.604,1.121-2.536c-3.016-0.258-5.184-0.386-6.508-0.386c-1.85,0.098-3.149,0.22-3.896,0.368
					c-1.092,0.22-2.028,0.539-2.812,0.956c-0.735,0.38-1.306,0.827-1.709,1.342c-0.381,0.502-0.57,1.029-0.57,1.581
					c0,0.404,0.104,0.778,0.312,1.121c0.221,0.368,0.545,0.687,0.975,0.955c0.44,0.283,0.98,0.503,1.617,0.662
					c0.674,0.16,1.439,0.239,2.298,0.239c0.809,0,1.567-0.049,2.28-0.146c0.697-0.099,1.348-0.246,1.947-0.442
					C354.592,53.904,355.137,53.683,355.641,53.414 M365.713,50.142c0.147-0.661,0.275-1.292,0.387-1.894
					c-2.047-0.11-3.67-0.22-4.871-0.331c-0.417,1.323-0.809,2.292-1.178,2.904c-0.281,0.49-0.594,0.937-0.936,1.342
					c-0.369,0.441-0.773,0.839-1.215,1.195c-0.465,0.367-0.968,0.705-1.508,1.011c-0.574,0.294-1.188,0.546-1.837,0.754
					c-0.687,0.233-1.415,0.404-2.188,0.515c-0.428,0.061-0.869,0.104-1.322,0.128c0.012,0.012,0.03,0.031,0.055,0.055
					c0.393,0.38,0.766,0.889,1.121,1.525c0.674,1.188,1.201,3.296,1.581,6.323c0.308,2.341,1.158,3.554,2.555,3.64
					c0.405,0.024,0.853-0.043,1.343-0.202c0.734-0.453,1.488-1.201,2.26-2.243c1.482-2.009,2.685-4.405,3.604-7.187
					c0.207-0.637,0.41-1.256,0.606-1.856C364.818,53.726,365.333,51.833,365.713,50.142 M348.195,33.341
					c-0.956,0.11-1.875,0.257-2.757,0.441c-0.833,0.196-1.63,0.435-2.39,0.716c-0.711,0.258-1.379,0.552-2.004,0.882
					c1.029,0.368,2.646,0.858,4.853,1.471c0.907,0.196,1.813,0.349,2.721,0.459c0.993,0.11,2.003,0.166,3.033,0.166
					c0.747,0,1.409-0.062,1.984-0.184c0.552-0.123,1.012-0.289,1.379-0.497c0.344-0.209,0.606-0.453,0.791-0.735
					c0.159-0.257,0.238-0.534,0.238-0.828c0-0.281-0.11-0.551-0.331-0.808c-0.22-0.246-0.538-0.46-0.955-0.644
					c-0.416-0.184-0.913-0.331-1.489-0.441c-0.588-0.111-1.231-0.166-1.931-0.166C350.248,33.175,349.201,33.23,348.195,33.341
					 M332.773,32.753c0.479,0.085,0.955,0.19,1.434,0.312c2.475,0.772,4.301,1.378,5.478,1.82c0.675-0.428,1.409-0.815,2.206-1.158
					c0.833-0.344,1.722-0.644,2.666-0.901c1.004-0.258,2.052-0.447,3.143-0.57c1.176-0.147,2.391-0.221,3.639-0.221
					c0.858,0,1.661,0.086,2.408,0.257c0.711,0.159,1.33,0.393,1.857,0.699c0.527,0.294,0.932,0.637,1.213,1.029
					c0.281,0.405,0.422,0.833,0.422,1.287c0,0.429-0.104,0.839-0.312,1.232c-0.233,0.404-0.57,0.754-1.011,1.048
					c-0.479,0.331-1.061,0.582-1.746,0.753c-0.735,0.197-1.575,0.294-2.519,0.294c-1.226,0-2.407-0.073-3.548-0.22
					c-1.029-0.123-2.053-0.307-3.07-0.552l-5.293-1.709c-0.515,0.343-0.975,0.717-1.379,1.121c-0.393,0.38-0.717,0.778-0.975,1.195
					c-0.258,0.392-0.453,0.778-0.588,1.157c-0.135,0.393-0.202,0.761-0.202,1.104c0,0.649,0.122,1.219,0.368,1.709
					c0.281,0.54,0.71,0.987,1.287,1.342c0.611,0.392,1.408,0.68,2.389,0.863c0.674,0.135,1.918,0.24,3.73,0.313
					c1.361,0,2.77-0.099,4.229-0.294c1.311-0.184,2.672-0.441,4.081-0.772c1.753-0.429,4.173-1.201,7.261-2.316
					c0.343-0.135,0.668-0.166,0.975-0.092c0.416,0.097,0.643,0.379,0.68,0.845c0.074,0.883,0.11,1.496,0.11,1.838
					c0,0.907-0.079,1.795-0.239,2.666c1.189,0.098,2.794,0.196,4.816,0.294c0.036-0.343,0.074-0.668,0.11-0.974
					c0.588-5.649,0.655-9.724,0.202-12.224c-0.441-2.5-1.311-4.614-2.61-6.342c-1.286-1.728-3.627-2.316-7.022-1.764
					c-0.662,0.11-1.342,0.27-2.04,0.478c-1.74,0.503-3.296,0.778-4.669,0.828c-0.393,0.012-0.766,0.006-1.121-0.019
					c-0.086,0-0.172,0-0.258,0c-1.385-0.049-2.94-0.325-4.668-0.827c-0.699-0.208-1.379-0.368-2.041-0.478
					c-3.395-0.551-5.735,0.037-7.021,1.765C334.054,29.027,333.264,30.755,332.773,32.753 M332.553,33.874
					c-0.012,0.012-0.019,0.024-0.019,0.037c-0.454,2.5-0.386,6.574,0.202,12.224c0.27,2.5,1.018,5.729,2.242,9.688
					c0.184,0.6,0.38,1.213,0.589,1.838c0.919,2.781,2.12,5.177,3.603,7.187c0.771,1.042,1.525,1.79,2.262,2.242
					c2.205,0.723,3.504-0.423,3.896-3.438c0.38-3.027,0.906-5.134,1.58-6.323c0.355-0.625,0.724-1.127,1.104-1.507
					c0.037-0.038,0.08-0.074,0.129-0.111c-0.417-0.061-0.81-0.14-1.177-0.239c-0.772-0.208-1.434-0.508-1.985-0.901
					c-0.502-0.367-0.889-0.809-1.158-1.323c-0.257-0.49-0.387-1.011-0.387-1.562c0-0.344,0.057-0.687,0.166-1.029
					c0.111-0.332,0.27-0.656,0.479-0.975c0.221-0.318,0.49-0.618,0.809-0.9l1.121-0.809l1.434-0.699l1.729-0.514
					c0.846-0.197,2.311-0.349,4.393-0.46c1.397,0,3.652,0.135,6.766,0.405c0.158-0.809,0.238-1.655,0.238-2.537
					c0-0.54-0.024-1.048-0.073-1.525c-1.495,0.551-3.015,1.048-4.56,1.489c-1.482,0.429-2.941,0.791-4.374,1.084
					c-1.386,0.294-2.696,0.515-3.935,0.662c-1.213,0.159-2.297,0.239-3.254,0.239c-2.094-0.086-3.528-0.208-4.301-0.368
					l-1.543-0.441c-0.441-0.184-0.84-0.392-1.195-0.625c-0.331-0.221-0.625-0.478-0.883-0.772c-0.232-0.27-0.423-0.57-0.569-0.9
					c-0.282-0.638-0.423-1.397-0.423-2.279c0-0.393,0.061-0.797,0.184-1.213c0.135-0.429,0.331-0.858,0.589-1.287
					c0.257-0.429,0.575-0.858,0.955-1.287c0.393-0.441,0.839-0.858,1.343-1.25c-1.042-0.393-2.678-0.925-4.908-1.6
					C333.264,34.009,332.908,33.935,332.553,33.874z"/>
			</g>
		</g>
	</g>
	<g>
		<path fill="none" stroke="#000000" stroke-width="5.5145" stroke-linecap="square" stroke-miterlimit="3" d="M444.485,167.241
			l9.872-4.136 M446.397,176.543h7.224 M439.779,159.448l4.283-4.301"/>
		<polyline fill="none" stroke="#000000" stroke-width="6.599" stroke-linecap="square" stroke-linejoin="round" points="
			437.463,187.039 397.393,187.039 426.067,158.363 		"/>
		<polygon points="414.616,189.777 414.597,189.888 414.523,190.88 414.506,190.972 414.506,191.046 414.357,192.02 
			414.357,192.112 414.174,193.104 413.273,196.395 412.631,198.067 412.611,198.105 412.648,198.142 414.616,197.057 
			416.785,195.604 419.248,193.583 423.145,189.851 415.001,185.862 		"/>
	</g>
	<g>
		<path fill="none" stroke="#000000" stroke-width="2.9411" stroke-linecap="square" stroke-miterlimit="3" d="M80.452,325.656
			h15.753c3.456,0,6.403-1.227,8.842-3.677c1.899-1.888,3.063-4.081,3.493-6.581c-2.218-1.102-4.663-1.654-7.335-1.654H56.557
			c-3.604,0-6.68-1.273-9.228-3.823c-2.55-2.55-3.824-5.625-3.824-9.228c0-3.604,1.274-6.68,3.824-9.229
			c1.629-1.629,3.474-2.738,5.532-3.326c0.43-1.643,1.287-3.107,2.573-4.395c1.925-1.923,4.246-2.885,6.967-2.885h18.234
			c1.25,0.073,2.262,0.471,3.033,1.194c0.771,0.723,1.109,1.55,1.011,2.481c-0.098,0.932-0.606,1.703-1.525,2.316
			c-0.932,0.6-1.967,0.864-3.106,0.789H56.557c-1.299,0-2.531,0.166-3.695,0.498c-0.221,0.82-0.331,1.684-0.331,2.591
			c0,2.733,0.969,5.062,2.904,6.986c1.925,1.937,4.246,2.903,6.967,2.903h33.804c3.456,0,6.403,1.221,8.842,3.659
			c2.451,2.45,3.677,5.403,3.677,8.859c0,0.784-0.062,1.537-0.184,2.261c1.568,0.784,3.02,1.846,4.355,3.181
			c3.235,3.235,4.854,7.138,4.854,11.708s-1.618,8.469-4.854,11.691c-3.223,3.235-7.119,4.852-11.69,4.852h-21.58 M69.883,344.442
			c-0.147-0.135-0.294-0.276-0.441-0.425c-2.107-2.106-3.161-4.66-3.161-7.663s1.054-5.563,3.161-7.685
			c1.055-1.042,2.212-1.825,3.475-2.354"/>
		<path fill="none" stroke="#000000" stroke-width="2.9411" stroke-linecap="round" stroke-miterlimit="3" d="M79.625,346.83h-4.89
			 M72.916,326.316c0.735-0.305,1.514-0.525,2.335-0.66 M75.435,325.656h5.018 M74.221,346.83c-1.605-0.428-3.051-1.225-4.338-2.388
			"/>
	</g>
	<g>
		<path d="M109.986,440.502c0.46-0.46,0.46-0.927,0-1.396l-33.113-33.1c-0.412-0.41-0.829-0.449-1.251-0.114
			c-0.038,0.039-0.086,0.077-0.144,0.114l-33.099,33.07c-0.46,0.488-0.46,0.965,0,1.425l33.099,33.099l0.144,0.143
			c0.422,0.317,0.839,0.26,1.251-0.172L109.986,440.502 M92.545,428.453l3.034,3.019c0.498,0.498,0.498,1.006,0,1.523l-26.067,26.04
			c-0.498,0.499-0.997,0.499-1.496,0l-3.033-3.033c-0.048-0.049-0.081-0.101-0.101-0.159c-0.125-0.086-0.239-0.172-0.345-0.258
			l-6.327-6.355c-0.086-0.088-0.167-0.182-0.244-0.289c-0.067-0.037-0.13-0.085-0.187-0.143l-3.02-3.02
			c-0.519-0.498-0.527-0.997-0.029-1.496l4.745-4.744c0.498-0.498,1.007-0.498,1.523,0l3.02,3.02
			c0.059,0.057,0.11,0.115,0.158,0.174c0.097,0.085,0.188,0.172,0.273,0.258l5.996,6.024L85.5,433.959l-5.68-5.694l-13.443,13.444
			c-0.498,0.499-0.997,0.499-1.495,0l-3.034-3.033c-0.518-0.499-0.526-0.997-0.028-1.497l18.965-18.935
			c0.498-0.518,1.006-0.527,1.523-0.028l3.034,3.033c0.038,0.028,0.072,0.062,0.101,0.101l0.216,0.216l6.571,6.557
			c0.066,0.076,0.139,0.148,0.215,0.215C92.454,428.376,92.488,428.414,92.545,428.453 M49.525,439.05l4.745-4.731
			c0.498-0.507,0.997-0.498,1.495,0.029l3.034,3.019c0.518,0.498,0.527,0.998,0.028,1.496l-4.744,4.745
			c-0.499,0.498-1.007,0.498-1.524,0l-3.034-3.02C49.027,440.07,49.027,439.558,49.525,439.05 M65.902,430.264
			c0.518,0.509,0.522,1.011,0.015,1.511l-4.73,4.73c-0.498,0.508-1.007,0.508-1.524,0l-3.033-3.02c-0.499-0.518-0.499-1.025,0-1.524
			l4.745-4.745c0.498-0.498,0.996-0.488,1.495,0.029L65.902,430.264 M66.751,429.417l-3.02-3.035
			c-0.499-0.518-0.489-1.035,0.029-1.553l4.701-4.716c0.518-0.519,1.03-0.519,1.538,0l3.02,3.033c0.518,0.499,0.518,1.007,0,1.524
			l-4.716,4.717C67.786,429.905,67.269,429.915,66.751,429.417 M80.123,416.044c0.518,0.498,0.527,1.007,0.028,1.525l-4.745,4.715
			c-0.518,0.518-1.035,0.527-1.553,0.029l-3.033-3.02c-0.499-0.518-0.489-1.035,0.028-1.553l4.773-4.746
			c0.498-0.479,0.987-0.469,1.467,0.029L80.123,416.044 M75.622,454.593c0.269-0.02,0.537,0.104,0.805,0.373l2.431,2.43
			c0.038,0.039,0.076,0.076,0.115,0.115l3.02,3.02c0.498,0.498,0.498,1.002,0,1.51l-4.745,4.73c-0.499,0.499-0.997,0.499-1.495,0
			l-3.02-3.019c-0.038-0.039-0.067-0.087-0.086-0.144l-0.029-0.016l-0.028,0.016l-2.401-2.402c-0.509-0.498-0.509-0.996,0-1.495
			l4.729-4.745C75.157,454.736,75.393,454.61,75.622,454.593"/>
	</g>
	<g>
		<path d="M219.176,407.044l-14.334-5.191v10.869L219.176,407.044 M205.129,413.858h-7.132c-0.087,0.854-0.441,1.586-1.064,2.199
			c-0.729,0.729-1.605,1.094-2.631,1.094c-1.016,0-1.889-0.365-2.616-1.094c-0.614-0.613-0.964-1.346-1.051-2.199h-7.447
			c-0.096,0.854-0.46,1.586-1.093,2.199c-0.71,0.729-1.577,1.094-2.603,1.094c-1.026,0-1.897-0.365-2.617-1.094
			c-0.613-0.613-0.958-1.346-1.035-2.199h-7.448c-0.086,0.854-0.45,1.586-1.092,2.199c-0.71,0.729-1.582,1.094-2.617,1.094
			c-1.016,0-1.889-0.365-2.617-1.094c-0.623-0.613-0.973-1.346-1.049-2.199h-6.773v6.901h50.886V413.858z"/>
		<path fill="none" stroke="#000000" stroke-width="3.4508" stroke-miterlimit="3" d="M155.955,430.824v-7.031h47.448v7.031
			 M182.67,472.437l-0.173-0.347"/>
		<path fill="none" stroke="#000000" stroke-width="3.4508" stroke-linecap="square" stroke-miterlimit="3" d="M203.403,430.824
			v17.699c0,1.534-0.125,3.015-0.374,4.443c-0.009,0-0.009,0.005,0,0.015c-0.105,0.575-0.229,1.146-0.374,1.711
			c-0.048,0.154-0.091,0.301-0.129,0.447c-0.192,0.679-0.412,1.345-0.661,1.997l-1.18,2.589c-0.93,1.677-2.08,3.258-3.451,4.744
			c-0.258,0.277-0.521,0.551-0.79,0.818c-0.757,0.759-1.539,1.453-2.344,2.087 M164.927,466.958
			c4.246,3.508,9.217,5.262,14.91,5.262h0.316c0.796-0.01,1.577-0.053,2.344-0.13c5.415-0.556,10.118-2.832,14.104-6.83
			c0.259-0.258,0.514-0.522,0.763-0.79c1.467-1.592,2.669-3.288,3.609-5.09 M203.029,452.981c-0.135,0.575-0.272,1.146-0.417,1.711
			c-0.076,0.26-0.148,0.513-0.216,0.763c-0.162,0.565-0.34,1.126-0.531,1.682 M156.113,448.84c0,2.828,0.426,5.483,1.279,7.966
			l1.035,2.4l0.892,1.611c0.978,1.572,2.171,3.062,3.58,4.471c0.643,0.643,1.299,1.237,1.97,1.785l0.058-0.115 M157.393,456.806
			c-0.958-2.568-1.438-5.328-1.438-8.282v-17.699"/>
		<polyline stroke="#000000" stroke-width="2.5881" stroke-miterlimit="3" points="194.101,467.375 179.406,437.784 
			164.927,466.958 		"/>
	</g>
	<g>
		<path fill="none" stroke="#000000" stroke-width="7.3527" stroke-linecap="round" stroke-miterlimit="3" d="M338.645,317.825
			l4.981-4.981 M287.765,295.179l10.679-10.679 M307.615,274.94v0.368 M325.264,331.208l-0.221-0.147 M288.205,313.12l0.072-0.074
			 M295.393,324.297l10.164-10.147 M298.205,303.119l27.333-27.352 M306.771,331.3l36.946-36.948 M315.484,304.223l21.248-21.248"/>
	</g>
	<g>
		<path d="M62.546,205.294c0.024,0.221,0.056,0.38,0.092,0.479c0.013,0.06,0.019,0.098,0.019,0.109c0,1.508,0.098,2.487,0.294,2.942
			l0.184,0.367c0.172,0.27,0.38,0.533,0.625,0.79c0.662,0.663,1.44,1.03,2.335,1.104c0.098,0,0.209,0.018,0.33,0.055h0.056h0.019
			c0.135-0.038,0.232-0.055,0.294-0.055h0.092h0.11c0.086,0,0.202,0.018,0.35,0.055c0.036-0.024,0.066-0.038,0.092-0.038
			c0.073-0.011,0.147-0.018,0.22-0.018c0.895-0.073,1.673-0.44,2.335-1.104c0.258-0.256,0.466-0.52,0.625-0.79
			c0.074-0.124,0.135-0.245,0.185-0.367c0.195-0.455,0.293-1.435,0.293-2.942c0-0.011,0.013-0.049,0.037-0.109
			c0.037-0.099,0.073-0.258,0.11-0.479H62.546 M91.037,174.487c0.037-0.221,0.067-0.441,0.092-0.662l16.415,16.415v-36.763
			L91.35,169.689c-0.208-3.688-1.44-7.359-3.694-11.011c-0.527-0.857-1.109-1.709-1.746-2.555c-1.029-1.385-2.285-2.512-3.769-3.382
			c-4.276-2.66-9.233-4.02-14.871-4.082c-0.122,0-0.251,0-0.386,0c-0.062,0-0.122,0-0.184,0s-0.122,0-0.185,0
			c-0.097,0-0.195,0-0.294,0c-5.673,0.05-10.66,1.41-14.962,4.082c-1.482,0.87-2.738,1.997-3.768,3.382
			c-7.818,10.404-7.236,20.967,1.745,31.69c0.16,0.22,0.332,0.441,0.516,0.661c0.379,0.453,0.76,0.913,1.14,1.378
			c1.446,1.752,3.162,3.756,5.147,6.011c2.021,2.292,3.607,4.088,4.76,5.386h0.257c-2.462-3.21-4.858-6.483-7.187-9.816
			c-1.066-1.519-2.01-3.131-2.83-4.834c-1.826-3.823-3.175-7.867-4.044-12.132c-0.675-3.235-0.589-6.439,0.257-9.614
			c1.274-4.865,3.774-8.676,7.5-11.433c3.565-2.659,7.456-4.222,11.671-4.687c0.013,0.024,0.037,0.048,0.074,0.073
			c-2.622,0.502-5.062,2.041-7.316,4.614c-2.377,2.757-3.981,6.568-4.815,11.433c-0.551,3.174-0.612,6.379-0.184,9.614
			c0.576,4.265,1.458,8.309,2.646,12.132c0.503,1.704,1.097,3.315,1.783,4.834c1.507,3.333,3.057,6.605,4.65,9.816h2.665
			c-0.552-3.21-1.072-6.483-1.562-9.816c-0.232-1.519-0.44-3.131-0.624-4.834c-0.393-3.823-0.687-7.867-0.884-12.132
			c-0.146-3.235-0.135-6.439,0.038-9.614c0.306-4.865,0.857-8.676,1.653-11.433c0.675-2.328,1.404-3.817,2.188-4.467
			c0.796,0.649,1.531,2.139,2.205,4.467c0.797,2.757,1.342,6.568,1.636,11.433c0.184,3.174,0.203,6.379,0.056,9.614
			c-0.195,4.265-0.49,8.309-0.882,12.132c-0.185,1.704-0.393,3.315-0.626,4.834c-0.489,3.333-1.004,6.605-1.543,9.816h2.646
			c1.581-3.21,3.132-6.483,4.65-9.816c0.687-1.519,1.28-3.131,1.782-4.834c1.189-3.823,2.072-7.867,2.647-12.132
			c0.417-3.235,0.355-6.439-0.184-9.614c-0.833-4.865-2.438-8.676-4.816-11.433c-2.254-2.573-4.692-4.111-7.315-4.614
			c0.037-0.025,0.067-0.049,0.092-0.073c4.203,0.465,8.088,2.028,11.654,4.687c3.725,2.757,6.225,6.568,7.499,11.433
			c0.846,3.174,0.932,6.379,0.258,9.614c-0.87,4.265-2.218,8.309-4.044,12.132c-0.82,1.704-1.765,3.315-2.831,4.834
			c-2.328,3.333-4.724,6.605-7.188,9.816h0.184c1.141-1.298,2.721-3.094,4.744-5.386c1.984-2.254,3.7-4.258,5.146-6.011
			c0.381-0.465,0.76-0.925,1.14-1.378c0.184-0.22,0.355-0.441,0.516-0.661c1.359-1.619,2.523-3.229,3.492-4.834
			c1.103-1.826,2.206-4.258,3.309-7.298L91.037,174.487z"/>
	</g>
	<g transform="matrix( 1, 0, 0, 1, 0,0) ">
		<g>
			<g id="Layer0_0_FILL_5_">
				<path d="M433.85,270.291c-0.479-0.148-0.846-0.148-1.141,0l-23.639,14.777c-0.293,0.222-0.441,0.515-0.441,0.81v27.278h22.5
					c0.221,0,0.404-0.074,0.552-0.258c0.146-0.147,0.22-0.331,0.22-0.551c0-0.221-0.074-0.368-0.22-0.516
					c-0.147-0.146-0.331-0.22-0.552-0.22h-2.758v-1.177h2.758c0.221,0,0.404-0.074,0.552-0.258c0.146-0.146,0.22-0.33,0.22-0.551
					s-0.074-0.368-0.22-0.516c-0.147-0.146-0.331-0.22-0.552-0.22h-2.758v-1.213h2.758c0.221,0,0.404-0.073,0.552-0.259
					c0.146-0.146,0.22-0.329,0.22-0.551c0-0.221-0.074-0.367-0.22-0.515c-0.147-0.147-0.331-0.22-0.552-0.22h-2.758v-1.214h2.758
					c0.221,0,0.404-0.073,0.552-0.258c0.146-0.146,0.22-0.329,0.22-0.551c0-0.221-0.074-0.368-0.22-0.515
					c-0.147-0.147-0.331-0.221-0.552-0.221h-12.721v-11.69c0-0.368,0.184-0.626,0.516-0.81l13.858-8.603
					c0.368-0.22,0.698-0.22,1.067,0l13.822,8.603c0.293,0.221,0.404,0.516,0.404,0.81v25.292h-38.711
					c-0.221,0-0.404,0.073-0.553,0.221c-0.109,0.146-0.184,0.332-0.184,0.551c0,0.221,0.074,0.369,0.184,0.553
					c0.148,0.146,0.332,0.221,0.553,0.221h2.757v1.177h-2.757c-0.221,0-0.404,0.073-0.553,0.22
					c-0.109,0.147-0.184,0.331-0.184,0.552c0,0.222,0.074,0.367,0.184,0.551c0.148,0.147,0.332,0.222,0.553,0.222h2.757v1.176
					h-2.757c-0.221,0-0.404,0.073-0.553,0.221c-0.109,0.146-0.184,0.33-0.184,0.551s0.074,0.369,0.184,0.553
					c0.148,0.146,0.332,0.219,0.553,0.219h2.757v1.178h-2.757c-0.221,0-0.404,0.073-0.553,0.221
					c-0.109,0.146-0.184,0.33-0.184,0.551s0.074,0.367,0.184,0.551c0.148,0.148,0.332,0.221,0.553,0.221h48.6v-40.77
					c0-0.404-0.146-0.662-0.477-0.809L433.85,270.291z"/>
			</g>
		</g>
	</g>
	<g>
		<path d="M328.349,163.482c-4.487,0-8.686,1.882-11.583,4.777c-2.533-9.41-11.219-16.433-21.427-16.433
			c-12.232,0-22.149,9.917-22.149,22.151c0,12.233,9.917,22.079,22.149,22.079h33.01c9.048,0,16.359-7.311,16.359-16.36
			C344.708,170.648,337.396,163.482,328.349,163.482"/>
		<path fill="#FFFFFF" d="M333.151,175.937c-3.489,4.234-8.69,6.76-14.187,6.76c-12.628,0.074-34.838,0.148-37.734-0.149
			c-4.16-0.297-5.35-3.194-1.783-6.24c3.194-2.823,4.902-5.051,13.965-5.051c7.65,0,22.433,0.148,24.957,0
			c2.527-0.148,7.504-2.303,11.365-8.097c0.074-0.074,0.15-0.148,0.223-0.148h6.611c0.225,0,0.372,0.223,0.297,0.446l-4.234,7.799
			c-0.147,0.297,0.075,0.743,0.447,0.743l2.005,0.148c0.445,0,0.743,0.594,0.445,1.04L333.151,175.937z"/>
	</g>
	<g>
		<path d="M457.965,36.428L457.965,36.428c0,5.973-4.851,10.825-10.824,10.825h-18.942V25.604h18.909
			C453.114,25.604,457.965,30.455,457.965,36.428"/>
		
			<line stroke="#011534" stroke-width="0.3272" stroke-linecap="round" stroke-linejoin="round" x1="431.986" y1="45.802" x2="450.742" y2="67.988"/>
		
			<line stroke="#011534" stroke-width="0.1691" stroke-linecap="round" stroke-linejoin="round" x1="436.917" y1="45.807" x2="455.189" y2="67.993"/>
		<polygon points="428.193,46.53 428.193,68.179 446.465,68.179 		"/>
	</g>
	<g>
		<path fill-rule="evenodd" clip-rule="evenodd" d="M231.895,170.088c0.761,0.76,1.14,1.673,1.14,2.739s-0.379,1.973-1.14,2.721
			c-0.747,0.76-1.653,1.14-2.72,1.14s-1.979-0.38-2.739-1.14c-0.747-0.748-1.121-1.655-1.121-2.721s0.374-1.979,1.121-2.739
			c0.76-0.747,1.673-1.121,2.739-1.121S231.147,169.341,231.895,170.088z"/>
		<path fill-rule="evenodd" clip-rule="evenodd" d="M157.284,170.088c0.76,0.76,1.14,1.673,1.14,2.739s-0.38,1.973-1.14,2.721
			c-0.748,0.76-1.654,1.14-2.721,1.14s-1.979-0.38-2.738-1.14c-0.748-0.748-1.122-1.655-1.122-2.721s0.374-1.979,1.122-2.739
			c0.759-0.747,1.672-1.121,2.738-1.121S156.536,169.341,157.284,170.088z"/>
		<polygon fill-rule="evenodd" clip-rule="evenodd" points="206.914,147.313 221.748,173.029 206.914,198.727 177.229,198.727 
			173.387,192.073 199.194,147.313 		"/>
		<polygon fill-rule="evenodd" clip-rule="evenodd" points="191.842,147.313 169.71,185.712 162.395,173.029 177.229,147.313 		"/>
	</g>
</g>
	<rect fill="rgba(255,255,255,0.85)" width="500" height="500"/>
</svg>
